<svg xmlns="http://www.w3.org/2000/svg" width="738.84" height="220.71" viewBox="0 0 738.84 220.71"><title>González Byass</title><path d="M65.21,85.4a36.25,36.25,0,1,1,1.26-41.64L55,52.65A21.72,21.72,0,1,0,50.72,79.9V75.75H33.81V61.26h31.4V85.4Z" style="fill:#242a2c"/><path d="M132.27,99.89A36.23,36.23,0,1,1,168.5,63.66,36.24,36.24,0,0,1,132.27,99.89ZM110.53,63.66a21.74,21.74,0,1,0,21.74-21.74A21.77,21.77,0,0,0,110.53,63.66Z" style="fill:#242a2c"/><path d="M203.77,27.43h3.87l44.44,42.32V27.43h14.49V99.89h-4L218.26,57.57V99.89H203.77Z" style="fill:#242a2c"/><path d="M306.86,27.43h53.33l-31.88,58h30.24V99.89H303.77l31.88-58H306.86Z" style="fill:#242a2c"/><path d="M444.35,87.81H407.06l-6.57,12.08H384l41.74-76.42,41.74,76.42H451Zm-7.93-14.49L425.7,53.61,415,73.32Z" style="fill:#242a2c"/><path d="M501.74,27.43h14.49v58h38.65V99.89H501.74Z" style="fill:#242a2c"/><path d="M593.05,27.43h53.14V41.92H607.54V63.66h29V78.15h-29V85.4h38.65V99.89H593.05Z" style="fill:#242a2c"/><path d="M685.51,27.43h53.33L707,85.4H737.2V99.89H682.42l31.88-58H685.51Z" style="fill:#242a2c"/><path d="M420.93,26.1c-5.08-4.18-10.33-9.25-12.34-14.33-.43-1.17-.79-2.65-.13-3.7,1.43-1.88,4.69-2.1,7-1.69,3.37.58,6.41,2,9.57,3.32,1.69-3.12,3.26-6.49,5-9.7a75.25,75.25,0,0,1,15.27,9.87c-1.34,3.29-2.63,6.71-3.78,10,4.26,3.59,10.24,7.91,11.42,14.3a3.86,3.86,0,0,1-1,3c-1.68,1.3-7,.75-10,0A23.63,23.63,0,0,1,436.69,35l-11.36-17Z" style="fill:#e11f1d"/><path d="M230.53,199a21.77,21.77,0,0,1-21.74,21.74H167.73V148.25H204a21.8,21.8,0,0,1,18.26,33.62A21.77,21.77,0,0,1,230.53,199Zm-21.74,7.25a7.25,7.25,0,0,0,0-14.5H182.12v14.49h26.67Zm-4.83-29a7.25,7.25,0,0,0,0-14.5H182.22v14.49H204Z" style="fill:#242a2c"/><path d="M255.17,148.25h17.1L291.5,179l19.32-30.72h17.1l-29.18,46.47v26H284.25v-26Z" style="fill:#242a2c"/><path d="M394.59,208.63H357.3l-6.57,12.08H334.21L376,144.29l41.83,76.42H401.26Zm-7.92-14.49-10.73-19.71-10.72,19.71Z" style="fill:#242a2c"/><path d="M438.27,204.33l14.35-8.39c3,5.14,7.44,9.2,14.75,9.2,5,0,8.66-1.89,8.66-5.14s-2.57-4.87-9.61-7.72l-3-1.22c-11.64-4.74-19.49-10.42-19.49-23,0-12.32,9.47-20.44,23.15-20.44,10.15,0,17.19,3,23,12.18l-13.94,8c-2.44-3.92-5-5-8.53-5s-6.09,1.89-6.09,5c0,3.79,3.11,5.14,7.31,6.9l3,1.22c13,5.28,22.47,10.56,22.47,24,0,13.13-10,20.84-26.66,20.84C453.29,220.71,442.87,213.8,438.27,204.33Z" style="fill:#242a2c"/><path d="M515.07,204.33l14.35-8.39c3,5.14,7.44,9.2,14.75,9.2,5,0,8.66-1.89,8.66-5.14s-2.57-4.87-9.61-7.72l-3-1.22c-11.64-4.74-19.49-10.42-19.49-23,0-12.32,9.47-20.44,23.15-20.44,10.15,0,17.19,3,23,12.18l-13.94,8c-2.44-3.92-5-5-8.53-5s-6.09,1.89-6.09,5c0,3.79,3.11,5.14,7.31,6.9l3,1.22c13,5.28,22.47,10.56,22.47,24,0,13.13-10,20.84-26.66,20.84C530.1,220.71,519.68,213.8,515.07,204.33Z" style="fill:#242a2c"/></svg>